<svg xmlns="http://www.w3.org/2000/svg" xmlns:xlink="http://www.w3.org/1999/xlink" preserveAspectRatio="xMidYMid meet" width="75" height="75" viewBox="0 0 75 75" style="width:100%;height:100%"><defs><animate repeatCount="indefinite" dur="2.002002s" begin="0s" xlink:href="#_R_G_L_0_G_D_0_P_0" fill="freeze" attributeName="stroke-width" from="1.5" to="1.5" keyTimes="0;0.1;0.2044333;0.30885;0.39835;0.471;0.5414333;0.6121;0.7181;0.8211;0.90225;0.9833333;1" values="1.5;2;3;4;5;6;3;3.5;3;2.5;2;1.5;1.5" keySplines="0.167 0.167 0.833 0.833;0.167 0.167 0.833 0.833;0.167 0.167 0.833 0.833;0.167 0.167 0.833 0.833;0.167 0.167 0.833 0.833;0.167 0.167 0.833 0.833;0.167 0.167 0.833 0.833;0.167 0.167 0.833 0.833;0.167 0.167 0.833 0.833;0.167 0.167 0.833 0.833;0.167 0.167 0.833 0.833;0 0 0 0" calcMode="spline"/><animate repeatCount="indefinite" dur="2.002002s" begin="0s" xlink:href="#_R_G_L_0_G_D_0_P_0" fill="freeze" attributeName="stroke-opacity" from="0.65" to="0.65" keyTimes="0;0.1;0.2044333;0.30885;0.39835;0.471;0.5414333;0.6121;0.7181;0.8211;0.90225;0.9833333;1" values="0.65;0.55;0.45;0.25;0.15;0.05;0.05;0.15;0.35000000000000003;0.35000000000000003;0.45;0.65;0.65" keySplines="0.167 0.167 0.833 0.833;0.167 0.167 0.833 0.833;0.167 0.167 0.833 0.833;0.167 0.167 0.833 0.833;0.167 0.167 0.833 0.833;0.167 0.167 0.833 0.833;0.167 0.167 0.833 0.833;0.167 0.167 0.833 0.833;0.167 0.167 0.833 0.833;0.167 0.167 0.833 0.833;0.167 0.167 0.833 0.833;0 0 0 0" calcMode="spline"/><animateTransform repeatCount="indefinite" dur="2.002002s" begin="0s" xlink:href="#_R_G_L_0_G" fill="freeze" attributeName="transform" from="1.38098 1.38098" to="1.38098 1.38098" type="scale" additive="sum" keyTimes="0;0.1193333;0.2237667;0.3281833;0.41885;0.51205;0.5767666;0.6474333;0.7406;0.8338;0.9083333;0.982875;1" values="1.38098 1.38098;1.61098 1.61098;1.7109800000000002 1.7109800000000002;1.84098 1.84098;1.84098 1.84098;1.84098 1.84098;1.74059 1.74059;1.63098 1.63098;1.4609800000000002 1.4609800000000002;1.4609800000000002 1.4609800000000002;1.4009800000000001 1.4009800000000001;1.38098 1.38098;1.38098 1.38098" keySplines="0.167 0.167 0.833 0.833;0.167 0.167 0.833 0.833;0.167 0.167 0.833 0.833;0.167 0.167 0.833 0.833;0.167 0.167 0.833 0.833;0.167 0.167 0.833 0.833;0.167 0.167 0.833 0.833;0.167 0.167 0.833 0.833;0.167 0.167 0.833 0.833;0.167 0.167 0.833 0.833;0.167 0.167 0.833 0.833;0 0 0 0" calcMode="spline"/><animateTransform repeatCount="indefinite" dur="2.002002s" begin="0s" xlink:href="#_R_G_L_0_G" fill="freeze" attributeName="transform" from="-71.469 39.126" to="-71.469 39.126" type="translate" additive="sum" keyTimes="0;1" values="-71.469 39.126;-71.469 39.126" keySplines="0 0 1 1" calcMode="spline"/><animate attributeType="XML" attributeName="opacity" dur="2s" from="0" to="1" xlink:href="#time_group"/></defs><g id="_R_G"><g id="_R_G_L_1_G" transform=" translate(37.969, 37.874) translate(-71.469, 39.126)"><path id="_R_G_L_1_G_D_0_P_0" stroke="#ffaa2b" stroke-linecap="round" stroke-linejoin="round" fill="none" stroke-width="2" stroke-opacity="1" d=" M81.14 -39.13 C81.14,-39.13 81.14,-39.13 81.14,-39.13 C81.14,-33.79 76.81,-29.45 71.47,-29.45 C71.47,-29.45 71.47,-29.45 71.47,-29.45 C66.13,-29.45 61.79,-33.79 61.79,-39.13 C61.79,-39.13 61.79,-39.13 61.79,-39.13 C61.79,-44.47 66.13,-48.8 71.47,-48.8 C71.47,-48.8 71.47,-48.8 71.47,-48.8 C76.81,-48.8 81.14,-44.47 81.14,-39.13z "/></g><g id="_R_G_L_0_G" transform=" translate(37.969, 37.874)"><path id="_R_G_L_0_G_D_0_P_0" stroke="#ffaa2b" stroke-linecap="round" stroke-linejoin="round" fill="none" stroke-width="1.5" stroke-opacity="0.65" d=" M81.14 -39.13 C81.14,-39.13 81.14,-39.13 81.14,-39.13 C81.14,-33.79 76.81,-29.45 71.47,-29.45 C71.47,-29.45 71.47,-29.45 71.47,-29.45 C66.13,-29.45 61.79,-33.79 61.79,-39.13 C61.79,-39.13 61.79,-39.13 61.79,-39.13 C61.79,-44.47 66.13,-48.8 71.47,-48.8 C71.47,-48.8 71.47,-48.8 71.47,-48.8 C76.81,-48.8 81.14,-44.47 81.14,-39.13z "/></g></g><g id="time_group"/></svg>