<svg xmlns="http://www.w3.org/2000/svg" xmlns:xlink="http://www.w3.org/1999/xlink" preserveAspectRatio="xMidYMid meet" width="75" height="75" viewBox="0 0 75 75" style="width:100%;height:100%"><defs><animate repeatCount="indefinite" dur="1.5348682s" begin="0s" xlink:href="#_R_G_L_0_G_D_0_P_0" fill="freeze" attributeName="stroke-width" from="1.5" to="1.5" keyTimes="0;0.1304348;0.2608696;0.3913043;0.5195869;0.6086956;0.6956521;0.7826087;0.8695652;0.9347826;1" values="1.5;2;3;4;5;4;3.5;3;2.5;2;1.5" keySplines="0.167 0.167 0.833 0.833;0.167 0.167 0.833 0.833;0.167 0.167 0.833 0.833;0.167 0.167 0.833 0.833;0.167 0.167 0.833 0.833;0.167 0.167 0.833 0.833;0.167 0.167 0.833 0.833;0.167 0.167 0.833 0.833;0.167 0.167 0.833 0.833;0.167 0.167 0.833 0.833" calcMode="spline"/><animate repeatCount="indefinite" dur="1.5348682s" begin="0s" xlink:href="#_R_G_L_0_G_D_0_P_0" fill="freeze" attributeName="stroke-opacity" from="0.85" to="0.85" keyTimes="0;0.1304348;0.2608696;0.3913043;0.5195869;0.6086956;0.6956521;0.7826087;0.8695652;0.9347826;1" values="0.85;0.75;0.65;0.55;0.45;0.55;0.6;0.65;0.7000000000000001;0.75;0.85" keySplines="0.167 0.167 0.833 0.833;0.167 0.167 0.833 0.833;0.167 0.167 0.833 0.833;0.167 0.167 0.833 0.833;0.167 0.167 0.833 0.833;0.167 0.167 0.833 0.833;0.167 0.167 0.833 0.833;0.167 0.167 0.833 0.833;0.167 0.167 0.833 0.833;0.167 0.167 0.833 0.833" calcMode="spline"/><animateTransform repeatCount="indefinite" dur="1.5348682s" begin="0s" xlink:href="#_R_G_L_0_G" fill="freeze" attributeName="transform" from="1.38098 1.38098" to="1.38098 1.38098" type="scale" additive="sum" keyTimes="0;0.1304348;0.2608696;0.3913043;0.5217391;0.6108478;0.6956521;0.7826087;0.8695652;0.9347826;1" values="1.38098 1.38098;1.61098 1.61098;1.7109800000000002 1.7109800000000002;1.84098 1.84098;1.9609800000000002 1.9609800000000002;1.84098 1.84098;1.7909800000000002 1.7909800000000002;1.7609800000000002 1.7609800000000002;1.62098 1.62098;1.5509800000000002 1.5509800000000002;1.38098 1.38098" keySplines="0.167 0.167 0.833 0.833;0.167 0.167 0.833 0.833;0.167 0.167 0.833 0.833;0.167 0.167 0.833 0.833;0.167 0.167 0.833 0.833;0.167 0.167 0.833 0.833;0.167 0.167 0.833 0.833;0.167 0.167 0.833 0.833;0.167 0.167 0.833 0.833;0.167 0.167 0.833 0.833" calcMode="spline"/><animateTransform repeatCount="indefinite" dur="1.5348682s" begin="0s" xlink:href="#_R_G_L_0_G" fill="freeze" attributeName="transform" from="-71.469 39.126" to="-71.469 39.126" type="translate" additive="sum" keyTimes="0;1" values="-71.469 39.126;-71.469 39.126" keySplines="0 0 1 1" calcMode="spline"/><animate attributeType="XML" attributeName="opacity" dur="2s" from="0" to="1" xlink:href="#time_group"/></defs><g id="_R_G"><g id="_R_G_L_1_G_N_1_T_0" transform=" translate(36.5, 37) scale(1.45, 1.45) translate(0, 0)"><g id="_R_G_L_1_G" transform=" translate(0.469, 0.374) translate(-71.469, 39.126)"><path id="_R_G_L_1_G_D_0_P_0" stroke="#ffaa2b" stroke-linecap="round" stroke-linejoin="round" fill="none" stroke-width="3" stroke-opacity="1" d=" M81.14 -39.13 C81.14,-39.13 81.14,-39.13 81.14,-39.13 C81.14,-33.79 76.81,-29.45 71.47,-29.45 C71.47,-29.45 71.47,-29.45 71.47,-29.45 C66.13,-29.45 61.79,-33.79 61.79,-39.13 C61.79,-39.13 61.79,-39.13 61.79,-39.13 C61.79,-44.47 66.13,-48.8 71.47,-48.8 C71.47,-48.8 71.47,-48.8 71.47,-48.8 C76.81,-48.8 81.14,-44.47 81.14,-39.13z "/></g></g><g id="_R_G_L_0_G_N_1_T_0" transform=" translate(36.5, 37) scale(1.45, 1.45) translate(0, 0)"><g id="_R_G_L_0_G" transform=" translate(0.469, 0.374)"><path id="_R_G_L_0_G_D_0_P_0" stroke="#ffaa2b" stroke-linecap="round" stroke-linejoin="round" fill="none" stroke-width="1.5" stroke-opacity="0.85" d=" M81.14 -39.13 C81.14,-39.13 81.14,-39.13 81.14,-39.13 C81.14,-33.79 76.81,-29.45 71.47,-29.45 C71.47,-29.45 71.47,-29.45 71.47,-29.45 C66.13,-29.45 61.79,-33.79 61.79,-39.13 C61.79,-39.13 61.79,-39.13 61.79,-39.13 C61.79,-44.47 66.13,-48.8 71.47,-48.8 C71.47,-48.8 71.47,-48.8 71.47,-48.8 C76.81,-48.8 81.14,-44.47 81.14,-39.13z "/></g></g></g><g id="time_group"/></svg>