<svg xmlns="http://www.w3.org/2000/svg" xmlns:xlink="http://www.w3.org/1999/xlink" preserveAspectRatio="xMidYMid meet" width="120" height="150" viewBox="0 0 120 150" style="width:100%;height:100%"><defs><animateTransform repeatCount="indefinite" dur="1.7684351s" begin="0s" xlink:href="#_R_G_L_6_G" fill="freeze" attributeName="transform" from="0" to="0" type="rotate" additive="sum" keyTimes="0;0.6226415;1;1" values="0;11;0;0" keySplines="0.167 0.167 0.833 0.833;0.167 0.167 0.833 0.833;0 0 0 0" calcMode="spline"/><animateTransform repeatCount="indefinite" dur="1.7684351s" begin="0s" xlink:href="#_R_G_L_6_G" fill="freeze" attributeName="transform" from="1.71 1.71" to="1.71 1.71" type="scale" additive="sum" keyTimes="0;1" values="1.71 1.71;1.71 1.71" keySplines="0 0 1 1" calcMode="spline"/><animateTransform repeatCount="indefinite" dur="1.7684351s" begin="0s" xlink:href="#_R_G_L_6_G" fill="freeze" attributeName="transform" from="-15.407 -25.631" to="-15.407 -25.631" type="translate" additive="sum" keyTimes="0;1" values="-15.407 -25.631;-15.407 -25.631" keySplines="0 0 1 1" calcMode="spline"/><animateTransform repeatCount="indefinite" dur="1.7684351s" begin="0s" xlink:href="#_R_G_L_5_G" fill="freeze" attributeName="transform" from="0" to="0" type="rotate" additive="sum" keyTimes="0;0.6226415;1;1" values="0;11;0;0" keySplines="0.167 0.167 0.833 0.833;0.167 0.167 0.833 0.833;0 0 0 0" calcMode="spline"/><animateTransform repeatCount="indefinite" dur="1.7684351s" begin="0s" xlink:href="#_R_G_L_5_G" fill="freeze" attributeName="transform" from="1.71 1.71" to="1.71 1.71" type="scale" additive="sum" keyTimes="0;1" values="1.71 1.71;1.71 1.71" keySplines="0 0 1 1" calcMode="spline"/><animateTransform repeatCount="indefinite" dur="1.7684351s" begin="0s" xlink:href="#_R_G_L_5_G" fill="freeze" attributeName="transform" from="-14.091 -24.9" to="-14.091 -24.9" type="translate" additive="sum" keyTimes="0;1" values="-14.091 -24.9;-14.091 -24.9" keySplines="0 0 1 1" calcMode="spline"/><clipPath id="_R_G_L_4_C_0"><path id="_R_G_L_4_C_0_P_0" fill-rule="nonzero" d="M55.25 65.5 C55.25,65.5 51.5,67.5 51.5,67.5 C51.5,67.5 50.5,76 50.5,76 C50.5,76 50.25,88.75 50.25,88.75 C50.25,88.75 51,92.75 51,92.75 C51,92.75 47.75,95 47.75,95 C47.75,95 46.25,94 44.75,97.75 C43.25,101.5 40.25,103.5 43.25,109 C46.25,114.5 47,120 53,122 C59,124 62.5,124.25 68.75,123.5 C75,122.75 76.25,122.75 79.75,119.5 C83.25,116.25 83.25,105 83.5,105 C83.75,105 83,99.75 83.5,96 C84,92.25 81.5,88.25 80.5,88.5 C79.5,88.75 76.75,90.5 76.75,90.5 C76.75,90.5 75.75,88.5 75.75,88.5 C75.75,88.5 74.25,84.5 74.25,84.5 C74.25,84.5 71.25,83.75 71.25,83.75 C71.25,83.75 67.88,86.25 67.88,86.25 C67.88,86.25 65,82.25 65,82.25 C65,82.25 61,83.88 61,83.88 C61,83.88 59.5,72 59.5,72 C59.5,72 58.5,67 58.5,67 C58.5,67 55.25,65.5 55.25,65.5z "/></clipPath><animateTransform repeatCount="indefinite" dur="1.7684351s" begin="0s" xlink:href="#_R_G_L_4_G_N_4_T_0" fill="freeze" attributeName="transform" from="0" to="0" type="rotate" additive="sum" keyTimes="0;0.6226415;1;1" values="0;11;0;0" keySplines="0.167 0.167 0.833 0.833;0.167 0.167 0.833 0.833;0 0 0 0" calcMode="spline"/><animateTransform repeatCount="indefinite" dur="1.7684351s" begin="0s" xlink:href="#_R_G_L_4_G_N_4_T_0" fill="freeze" attributeName="transform" from="1.71 1.71" to="1.71 1.71" type="scale" additive="sum" keyTimes="0;1" values="1.71 1.71;1.71 1.71" keySplines="0 0 1 1" calcMode="spline"/><animateTransform repeatCount="indefinite" dur="1.7684351s" begin="0s" xlink:href="#_R_G_L_4_G_N_4_T_0" fill="freeze" attributeName="transform" from="-15.699 -26.509" to="-15.699 -26.509" type="translate" additive="sum" keyTimes="0;1" values="-15.699 -26.509;-15.699 -26.509" keySplines="0 0 1 1" calcMode="spline"/><animateTransform repeatCount="indefinite" dur="1.7684351s" begin="0s" xlink:href="#_R_G_L_3_G" fill="freeze" attributeName="transform" from="0" to="0" type="rotate" additive="sum" keyTimes="0;0.6226415;1;1" values="0;11;0;0" keySplines="0.167 0.167 0.833 0.833;0.167 0.167 0.833 0.833;0 0 0 0" calcMode="spline"/><animateTransform repeatCount="indefinite" dur="1.7684351s" begin="0s" xlink:href="#_R_G_L_3_G" fill="freeze" attributeName="transform" from="1.71 1.71" to="1.71 1.71" type="scale" additive="sum" keyTimes="0;1" values="1.71 1.71;1.71 1.71" keySplines="0 0 1 1" calcMode="spline"/><animateTransform repeatCount="indefinite" dur="1.7684351s" begin="0s" xlink:href="#_R_G_L_3_G" fill="freeze" attributeName="transform" from="-15.699 -26.509" to="-15.699 -26.509" type="translate" additive="sum" keyTimes="0;1" values="-15.699 -26.509;-15.699 -26.509" keySplines="0 0 1 1" calcMode="spline"/><animate attributeType="XML" attributeName="opacity" dur="2s" from="0" to="1" xlink:href="#time_group"/></defs><g id="_R_G"><g id="_R_G_L_6_G" opacity="0.75" transform=" translate(65, 104)"><path id="_R_G_L_6_G_D_0_P_0" stroke="#807e7a" stroke-linecap="round" stroke-linejoin="round" fill="none" stroke-width="1" stroke-opacity="1" d=" M22.28 18.82 C22.28,18.82 22.28,16.33 22.28,16.33 C22.31,15.99 22.26,15.65 22.15,15.33 C22.04,15 21.86,14.7 21.63,14.45 C21.4,14.2 21.11,14 20.8,13.86 C20.49,13.73 20.15,13.65 19.8,13.65 C19.46,13.65 19.12,13.73 18.81,13.86 C18.49,14 18.21,14.2 17.98,14.45 C17.75,14.7 17.57,15 17.46,15.33 C17.35,15.65 17.3,15.99 17.33,16.33 C17.33,16.33 17.33,15.1 17.33,15.1 C17.33,14.44 17.07,13.81 16.6,13.34 C16.13,12.88 15.5,12.62 14.84,12.62 C14.19,12.62 13.55,12.88 13.09,13.34 C12.62,13.81 12.36,14.44 12.36,15.1 C12.36,15.1 12.36,5.18 12.36,5.18 C12.39,4.84 12.34,4.49 12.23,4.17 C12.12,3.85 11.94,3.55 11.71,3.3 C11.48,3.05 11.19,2.85 10.88,2.71 C10.57,2.57 10.23,2.5 9.88,2.5 C9.54,2.5 9.2,2.57 8.89,2.71 C8.57,2.85 8.29,3.05 8.06,3.3 C7.83,3.55 7.65,3.85 7.54,4.17 C7.42,4.49 7.38,4.84 7.41,5.18 C7.41,5.18 7.41,20.05 7.41,20.05 C6.1,20.07 4.86,20.6 3.94,21.52 C3.02,22.45 2.5,23.7 2.5,25 C2.5,27.43 3.26,29.79 4.68,31.76 C4.68,31.76 6.48,34.29 6.48,34.29 C7.17,35.25 8.08,36.03 9.13,36.57 C10.18,37.1 11.35,37.38 12.53,37.38 C12.53,37.38 18.84,37.38 18.84,37.38 C21.06,37.34 23.17,36.44 24.73,34.86 C26.29,33.28 27.18,31.16 27.19,28.94 C27.19,28.94 27.19,18.82 27.19,18.82 C27.19,18.16 26.92,17.53 26.46,17.06 C25.99,16.6 25.36,16.33 24.7,16.33 C24.04,16.33 23.41,16.6 22.95,17.06 C22.48,17.53 22.22,18.16 22.22,18.82 C22.22,18.82 22.28,18.82 22.28,18.82z "/><path id="_R_G_L_6_G_D_1_P_0" stroke="#807e7a" stroke-linecap="round" stroke-linejoin="round" fill="none" stroke-width="1" stroke-opacity="1" d=" M7.41 20.05 C7.41,20.05 7.41,23.77 7.41,23.77 "/><path id="_R_G_L_6_G_D_2_P_0" stroke="#807e7a" stroke-linecap="round" stroke-linejoin="round" fill="none" stroke-width="1" stroke-opacity="1" d=" M12.36 18.82 C12.36,18.82 12.36,16.33 12.36,16.33 "/><path id="_R_G_L_6_G_D_3_P_0" stroke="#807e7a" stroke-linecap="round" stroke-linejoin="round" fill="none" stroke-width="1" stroke-opacity="1" d=" M17.33 18.82 C17.33,18.82 17.33,16.33 17.33,16.33 "/></g><g id="_R_G_L_5_G" opacity="0.85" transform=" translate(63.75, 103.125)"><path id="_R_G_L_5_G_D_0_P_0" stroke="#ffffff" stroke-linecap="round" stroke-linejoin="round" fill="none" stroke-width="1" stroke-opacity="1" d=" M22.28 19.57 C22.28,19.57 22.28,17.08 22.28,17.08 C22.31,16.74 22.26,16.4 22.15,16.08 C22.04,15.75 21.86,15.45 21.63,15.2 C21.4,14.95 21.11,14.75 20.8,14.61 C20.49,14.48 20.15,14.4 19.8,14.4 C19.46,14.4 19.12,14.48 18.81,14.61 C18.49,14.75 18.21,14.95 17.98,15.2 C17.75,15.45 17.57,15.75 17.46,16.08 C17.35,16.4 17.3,16.74 17.33,17.08 C17.33,17.08 17.33,15.85 17.33,15.85 C17.33,15.19 17.07,14.56 16.6,14.09 C16.13,13.63 15.5,13.37 14.84,13.37 C14.19,13.37 13.4,13.51 13.09,14.09 C12.3,15.53 12.47,18.96 12.47,19.61 C12.47,19.61 12.36,5.93 12.36,5.93 C12.39,5.59 12.34,5.24 12.23,4.92 C12.12,4.6 11.94,4.3 11.71,4.05 C11.48,3.8 11.19,3.6 10.88,3.46 C10.57,3.32 10.23,3.25 9.88,3.25 C9.54,3.25 9.2,3.32 8.89,3.46 C8.57,3.6 8.29,3.8 8.06,4.05 C7.83,4.3 7.65,4.6 7.54,4.92 C7.42,5.24 7.38,5.59 7.41,5.93 C7.41,5.93 7.41,20.8 7.41,20.8 C6.1,20.82 4.86,21.35 3.94,22.27 C3.02,23.2 2.5,24.45 2.5,25.75 C2.5,28.18 3.26,30.54 4.68,32.51 C4.68,32.51 6.48,35.04 6.48,35.04 C7.17,36 8.08,36.78 9.13,37.32 C10.18,37.85 11.35,38.13 12.53,38.13 C12.53,38.13 18.84,38.13 18.84,38.13 C21.06,38.09 23.17,37.19 24.73,35.61 C26.29,34.03 27.18,31.91 27.19,29.69 C27.19,29.69 27.19,19.57 27.19,19.57 C27.19,18.91 26.92,18.28 26.46,17.81 C25.99,17.35 25.36,17.08 24.7,17.08 C24.04,17.08 23.41,17.35 22.95,17.81 C22.48,18.28 22.22,18.91 22.22,19.57 C22.22,19.57 22.28,19.57 22.28,19.57z "/><path id="_R_G_L_5_G_D_1_P_0" stroke="#ffffff" stroke-linecap="round" stroke-linejoin="round" fill="none" stroke-width="1" stroke-opacity="1" d=" M7.41 20.8 C7.41,20.8 7.41,24.52 7.41,24.52 "/><path id="_R_G_L_5_G_D_2_P_0" stroke="#ffffff" stroke-linecap="round" stroke-linejoin="round" fill="none" stroke-width="1" stroke-opacity="1" d=" M17.33 19.57 C17.33,19.57 17.33,17.08 17.33,17.08 "/></g><g id="_R_G_L_4_G_N_4_T_0" transform=" translate(65, 105)"><g id="_R_G_L_4_G" transform=" translate(12.775, 8.965) scale(0.5848, 0.5848) translate(-60, -75)"><g clip-path="url(#_R_G_L_4_C_0)"><rect id="_R_G_L_4_G_G_0_S" fill="#ffffff" width="120" height="150"/></g></g></g><g id="_R_G_L_3_G" transform=" translate(65, 105)"><path id="_R_G_L_3_G_D_0_P_0" stroke="#ff9900" stroke-linecap="round" stroke-linejoin="round" fill="none" stroke-width="2" stroke-opacity="1" d=" M22.28 18.82 C22.28,18.82 22.28,16.33 22.28,16.33 C22.31,15.99 22.26,15.65 22.15,15.33 C22.04,15 21.86,14.7 21.63,14.45 C21.4,14.2 21.11,14 20.8,13.86 C20.49,13.73 20.15,13.65 19.8,13.65 C19.46,13.65 19.12,13.73 18.81,13.86 C18.49,14 18.21,14.2 17.98,14.45 C17.75,14.7 17.57,15 17.46,15.33 C17.35,15.65 17.3,15.99 17.33,16.33 C17.33,16.33 17.33,15.1 17.33,15.1 C17.33,14.44 17.07,13.81 16.6,13.34 C16.13,12.88 15.5,12.62 14.84,12.62 C14.19,12.62 13.4,13.14 13.08,13.71 C12.38,14.93 12.25,18.31 12.25,18.97 C12.25,18.97 12.36,5.18 12.36,5.18 C12.39,4.84 12.34,4.49 12.23,4.17 C12.12,3.85 11.94,3.55 11.71,3.3 C11.48,3.05 11.19,2.85 10.88,2.71 C10.57,2.57 10.23,2.5 9.88,2.5 C9.54,2.5 9.2,2.57 8.89,2.71 C8.57,2.85 8.29,3.05 8.06,3.3 C7.83,3.55 7.65,3.85 7.54,4.17 C7.42,4.49 7.38,4.84 7.41,5.18 C7.41,5.18 7.41,20.05 7.41,20.05 C6.1,20.07 4.86,20.6 3.94,21.52 C3.02,22.45 2.5,23.7 2.5,25 C2.5,27.43 3.26,29.79 4.68,31.76 C4.68,31.76 6.48,34.29 6.48,34.29 C7.17,35.25 8.08,36.03 9.13,36.57 C10.18,37.1 11.35,37.38 12.53,37.38 C12.53,37.38 18.84,37.38 18.84,37.38 C21.06,37.34 23.17,36.44 24.73,34.86 C26.29,33.28 27.18,31.16 27.19,28.94 C27.19,28.94 27.19,18.82 27.19,18.82 C27.19,18.16 26.92,17.53 26.46,17.06 C25.99,16.6 25.36,16.33 24.7,16.33 C24.04,16.33 23.41,16.6 22.95,17.06 C22.48,17.53 22.22,18.16 22.22,18.82 C22.22,18.82 22.28,18.82 22.28,18.82z "/><path id="_R_G_L_3_G_D_1_P_0" stroke="#ff9900" stroke-linecap="round" stroke-linejoin="round" fill="none" stroke-width="2" stroke-opacity="1" d=" M7.41 20.05 C7.41,20.05 7.41,23.77 7.41,23.77 "/><path id="_R_G_L_3_G_D_2_P_0" stroke="#ff9900" stroke-linecap="round" stroke-linejoin="round" fill="none" stroke-width="2" stroke-opacity="1" d=" M17.33 18.82 C17.33,18.82 17.33,16.33 17.33,16.33 "/></g><g id="_R_G_L_2_G" opacity="0.85" transform=" translate(62.08, 49.824) scale(-1.71, 1.71) translate(-29.5, -10.073)"><path id="_R_G_L_2_G_D_0_P_0" stroke="#807e7a" stroke-linecap="round" stroke-linejoin="round" fill="none" stroke-width="1" stroke-opacity="1" d=" M2.5 2.99 C2.5,2.99 2.5,17.65 2.5,17.65 C2.5,17.65 17.16,17.65 17.16,17.65 "/><path id="_R_G_L_2_G_D_1_P_0" stroke="#807e7a" stroke-linecap="round" stroke-linejoin="round" fill="none" stroke-width="1" stroke-opacity="1" d=" M56.5 11.52 C48.51,5.49 38.81,2.5 28.99,3.05 C19.17,3.61 9.83,7.67 2.5,14.56 "/></g><g id="_R_G_L_1_G" opacity="0.85" transform=" translate(61.33, 51.074) scale(-1.71, 1.71) translate(-29.5, -10.073)"><path id="_R_G_L_1_G_D_0_P_0" stroke="#ffffff" stroke-linecap="round" stroke-linejoin="round" fill="none" stroke-width="1" stroke-opacity="1" d=" M2.5 2.99 C2.5,2.99 2.5,17.65 2.5,17.65 C2.5,17.65 17.16,17.65 17.16,17.65 "/><path id="_R_G_L_1_G_D_1_P_0" stroke="#ffffff" stroke-linecap="round" stroke-linejoin="round" fill="none" stroke-width="1" stroke-opacity="1" d=" M56.5 11.52 C48.51,5.49 38.81,2.5 28.99,3.05 C19.17,3.61 9.83,7.67 2.5,14.56 "/></g><g id="_R_G_L_0_G" transform=" translate(61.58, 47.574) scale(-1.71, 1.71) translate(-29.5, -10.073)"><path id="_R_G_L_0_G_D_0_P_0" stroke="#ff9900" stroke-linecap="round" stroke-linejoin="round" fill="none" stroke-width="2.5" stroke-opacity="1" d=" M2.5 2.99 C2.5,2.99 2.5,17.65 2.5,17.65 C2.5,17.65 17.16,17.65 17.16,17.65 "/><path id="_R_G_L_0_G_D_1_P_0" stroke="#ff9900" stroke-linecap="round" stroke-linejoin="round" fill="none" stroke-width="2.5" stroke-opacity="1" d=" M56.5 11.52 C48.51,5.49 38.81,2.5 28.99,3.05 C19.17,3.61 9.83,7.67 2.5,14.56 "/></g></g><g id="time_group"/></svg>