<svg xmlns="http://www.w3.org/2000/svg" xmlns:xlink="http://www.w3.org/1999/xlink" preserveAspectRatio="xMidYMid meet" width="120" height="150" viewBox="0 0 120 150" style="width:100%;height:100%"><defs><animate repeatCount="indefinite" dur="3.7370704s" begin="0s" xlink:href="#_R_G_L_5_G" fill="freeze" attributeName="opacity" from="0.45" to="0" keyTimes="0;0.3125;0.3928571;0.4464286;1" values="0.45;0.45;0;0;0" keySplines="0.167 0.167 0.833 0.833;0.167 0.167 0.833 0.833;0.167 0.167 0.833 0.833;0 0 0 0" calcMode="spline"/><animateTransform repeatCount="indefinite" dur="3.7370704s" begin="0s" xlink:href="#_R_G_L_5_G" fill="freeze" attributeName="transform" from="0" to="-32" type="rotate" additive="sum" keyTimes="0;0.3839286;1" values="0;-32;-32" keySplines="0.167 0.167 0.833 0.833;0 0 0 0" calcMode="spline"/><animateTransform repeatCount="indefinite" dur="3.7370704s" begin="0s" xlink:href="#_R_G_L_5_G" fill="freeze" attributeName="transform" from="1.96 1.96" to="1.96 1.96" type="scale" additive="sum" keyTimes="0;1" values="1.96 1.96;1.96 1.96" keySplines="0 0 1 1" calcMode="spline"/><animateTransform repeatCount="indefinite" dur="3.7370704s" begin="0s" xlink:href="#_R_G_L_5_G" fill="freeze" attributeName="transform" from="-26.031 -19.459" to="-26.031 -19.459" type="translate" additive="sum" keyTimes="0;1" values="-26.031 -19.459;-26.031 -19.459" keySplines="0 0 1 1" calcMode="spline"/><animate repeatCount="indefinite" dur="3.7370704s" begin="0s" xlink:href="#_R_G_L_5_G_M" fill="freeze" attributeName="opacity" from="1" to="0" keyTimes="0;0.4285714;0.4285714;1" values="1;1;0;0" keySplines="0 0 0 0;0 0 0 0;0 0 0 0" calcMode="spline"/><animate repeatCount="indefinite" dur="3.7370704s" begin="0s" xlink:href="#_R_G_L_4_G" fill="freeze" attributeName="opacity" from="0.75" to="1" keyTimes="0;0.3125;0.3839286;0.4464286;0.5;1" values="0.75;0.75;0;0;1;1" keySplines="0.167 0.167 0.833 0.833;0.167 0.167 0.833 0.833;0.167 0.167 0.833 0.833;0.167 0.167 0.833 0.833;0 0 0 0" calcMode="spline"/><animateTransform repeatCount="indefinite" dur="3.7370704s" begin="0s" xlink:href="#_R_G_L_4_G" fill="freeze" attributeName="transform" from="0" to="-32" type="rotate" additive="sum" keyTimes="0;0.3839286;1" values="0;-32;-32" keySplines="0.167 0.167 0.833 0.833;0 0 0 0" calcMode="spline"/><animateTransform repeatCount="indefinite" dur="3.7370704s" begin="0s" xlink:href="#_R_G_L_4_G" fill="freeze" attributeName="transform" from="1.96 1.96" to="1.96 1.96" type="scale" additive="sum" keyTimes="0;1" values="1.96 1.96;1.96 1.96" keySplines="0 0 1 1" calcMode="spline"/><animateTransform repeatCount="indefinite" dur="3.7370704s" begin="0s" xlink:href="#_R_G_L_4_G" fill="freeze" attributeName="transform" from="-25.52 -19.714" to="-25.52 -19.714" type="translate" additive="sum" keyTimes="0;1" values="-25.52 -19.714;-25.52 -19.714" keySplines="0 0 1 1" calcMode="spline"/><animate repeatCount="indefinite" dur="3.7370704s" begin="0s" xlink:href="#_R_G_L_4_G_M" fill="freeze" attributeName="opacity" from="1" to="0" keyTimes="0;0.4285714;0.4285714;1" values="1;1;0;0" keySplines="0 0 0 0;0 0 0 0;0 0 0 0" calcMode="spline"/><animate repeatCount="indefinite" dur="3.7370704s" begin="0s" xlink:href="#_R_G_L_3_G" fill="freeze" attributeName="opacity" from="1" to="1" keyTimes="0;0.3125;0.3839286;0.4464286;0.5;1" values="1;1;0;0;1;1" keySplines="0.167 0.167 0.833 0.833;0.167 0.167 0.833 0.833;0.167 0.167 0.833 0.833;0.167 0.167 0.833 0.833;0 0 0 0" calcMode="spline"/><animateTransform repeatCount="indefinite" dur="3.7370704s" begin="0s" xlink:href="#_R_G_L_3_G" fill="freeze" attributeName="transform" from="0" to="-32" type="rotate" additive="sum" keyTimes="0;0.3839286;1" values="0;-32;-32" keySplines="0.167 0.167 0.833 0.833;0 0 0 0" calcMode="spline"/><animateTransform repeatCount="indefinite" dur="3.7370704s" begin="0s" xlink:href="#_R_G_L_3_G" fill="freeze" attributeName="transform" from="1.96 1.96" to="1.96 1.96" type="scale" additive="sum" keyTimes="0;1" values="1.96 1.96;1.96 1.96" keySplines="0 0 1 1" calcMode="spline"/><animateTransform repeatCount="indefinite" dur="3.7370704s" begin="0s" xlink:href="#_R_G_L_3_G" fill="freeze" attributeName="transform" from="-27.051 -21.5" to="-27.051 -21.5" type="translate" additive="sum" keyTimes="0;1" values="-27.051 -21.5;-27.051 -21.5" keySplines="0 0 1 1" calcMode="spline"/><animate repeatCount="indefinite" dur="3.7370704s" begin="0s" xlink:href="#_R_G_L_3_G_M" fill="freeze" attributeName="opacity" from="1" to="0" keyTimes="0;0.4285714;0.4285714;1" values="1;1;0;0" keySplines="0 0 0 0;0 0 0 0;0 0 0 0" calcMode="spline"/><animate repeatCount="indefinite" dur="3.7370704s" begin="0s" xlink:href="#_R_G_L_2_G" fill="freeze" attributeName="opacity" from="0" to="0" keyTimes="0;0.3839286;0.5267857;0.9017857;1" values="0;0;0.45;0.45;0" keySplines="0.167 0.167 0.833 0.833;0.167 0.167 0.833 0.833;0.167 0.167 0.833 0.833;0.167 0.167 0.833 0.833" calcMode="spline"/><animateTransform repeatCount="indefinite" dur="3.7370704s" begin="0s" xlink:href="#_R_G_L_2_G" fill="freeze" attributeName="transform" from="0" to="-32" type="rotate" additive="sum" keyTimes="0;0.3839286;0.5267857;0.9553571;1" values="0;0;0;-32;-32" keySplines="0.167 0.167 0.833 0.833;0.167 0.167 0.833 0.833;0.167 0.167 0.833 0.833;0 0 0 0" calcMode="spline"/><animateTransform repeatCount="indefinite" dur="3.7370704s" begin="0s" xlink:href="#_R_G_L_2_G" fill="freeze" attributeName="transform" from="1.96 1.96" to="1.96 1.96" type="scale" additive="sum" keyTimes="0;1" values="1.96 1.96;1.96 1.96" keySplines="0 0 1 1" calcMode="spline"/><animateTransform repeatCount="indefinite" dur="3.7370704s" begin="0s" xlink:href="#_R_G_L_2_G" fill="freeze" attributeName="transform" from="-26.031 -19.459" to="-26.031 -19.459" type="translate" additive="sum" keyTimes="0;1" values="-26.031 -19.459;-26.031 -19.459" keySplines="0 0 1 1" calcMode="spline"/><animate repeatCount="indefinite" dur="3.7370704s" begin="0s" xlink:href="#_R_G_L_2_G_M" fill="freeze" attributeName="opacity" from="0" to="1" keyTimes="0;0.3839286;0.3839295;1" values="0;0;1;1" keySplines="0 0 0 0;0 0 0 0;0 0 0 0" calcMode="spline"/><animate repeatCount="indefinite" dur="3.7370704s" begin="0s" xlink:href="#_R_G_L_1_G" fill="freeze" attributeName="opacity" from="0" to="0" keyTimes="0;0.3839286;0.5267857;0.9017857;1" values="0;0;0.75;0.75;0" keySplines="0.167 0.167 0.833 0.833;0.167 0.167 0.833 0.833;0.167 0.167 0.833 0.833;0.167 0.167 0.833 0.833" calcMode="spline"/><animateTransform repeatCount="indefinite" dur="3.7370704s" begin="0s" xlink:href="#_R_G_L_1_G" fill="freeze" attributeName="transform" from="0" to="-32" type="rotate" additive="sum" keyTimes="0;0.3839286;0.5267857;0.9553571;1" values="0;0;0;-32;-32" keySplines="0.167 0.167 0.833 0.833;0.167 0.167 0.833 0.833;0.167 0.167 0.833 0.833;0 0 0 0" calcMode="spline"/><animateTransform repeatCount="indefinite" dur="3.7370704s" begin="0s" xlink:href="#_R_G_L_1_G" fill="freeze" attributeName="transform" from="1.96 1.96" to="1.96 1.96" type="scale" additive="sum" keyTimes="0;1" values="1.96 1.96;1.96 1.96" keySplines="0 0 1 1" calcMode="spline"/><animateTransform repeatCount="indefinite" dur="3.7370704s" begin="0s" xlink:href="#_R_G_L_1_G" fill="freeze" attributeName="transform" from="-25.52 -19.714" to="-25.52 -19.714" type="translate" additive="sum" keyTimes="0;1" values="-25.52 -19.714;-25.52 -19.714" keySplines="0 0 1 1" calcMode="spline"/><animate repeatCount="indefinite" dur="3.7370704s" begin="0s" xlink:href="#_R_G_L_1_G_M" fill="freeze" attributeName="opacity" from="0" to="1" keyTimes="0;0.3839286;0.3839295;1" values="0;0;1;1" keySplines="0 0 0 0;0 0 0 0;0 0 0 0" calcMode="spline"/><animate repeatCount="indefinite" dur="3.7370704s" begin="0s" xlink:href="#_R_G_L_0_G" fill="freeze" attributeName="opacity" from="0" to="0" keyTimes="0;0.3839286;0.5267857;0.9017857;1" values="0;0;1;1;0" keySplines="0.167 0.167 0.833 0.833;0.167 0.167 0.833 0.833;0.167 0.167 0.833 0.833;0.167 0.167 0.833 0.833" calcMode="spline"/><animateTransform repeatCount="indefinite" dur="3.7370704s" begin="0s" xlink:href="#_R_G_L_0_G" fill="freeze" attributeName="transform" from="0" to="-32" type="rotate" additive="sum" keyTimes="0;0.3839286;0.5267857;0.9553571;1" values="0;0;0;-32;-32" keySplines="0.167 0.167 0.833 0.833;0.167 0.167 0.833 0.833;0.167 0.167 0.833 0.833;0 0 0 0" calcMode="spline"/><animateTransform repeatCount="indefinite" dur="3.7370704s" begin="0s" xlink:href="#_R_G_L_0_G" fill="freeze" attributeName="transform" from="1.96 1.96" to="1.96 1.96" type="scale" additive="sum" keyTimes="0;1" values="1.96 1.96;1.96 1.96" keySplines="0 0 1 1" calcMode="spline"/><animateTransform repeatCount="indefinite" dur="3.7370704s" begin="0s" xlink:href="#_R_G_L_0_G" fill="freeze" attributeName="transform" from="-27.051 -21.5" to="-27.051 -21.5" type="translate" additive="sum" keyTimes="0;1" values="-27.051 -21.5;-27.051 -21.5" keySplines="0 0 1 1" calcMode="spline"/><animate repeatCount="indefinite" dur="3.7370704s" begin="0s" xlink:href="#_R_G_L_0_G_M" fill="freeze" attributeName="opacity" from="0" to="1" keyTimes="0;0.3839286;0.3839295;1" values="0;0;1;1" keySplines="0 0 0 0;0 0 0 0;0 0 0 0" calcMode="spline"/><animate attributeType="XML" attributeName="opacity" dur="4s" from="0" to="1" xlink:href="#time_group"/></defs><g id="_R_G"><g id="_R_G_L_5_G_M"><g id="_R_G_L_5_G" transform=" translate(60, 76)"><path id="_R_G_L_5_G_D_0_P_0" stroke="#807e7a" stroke-linecap="round" stroke-linejoin="round" fill="none" stroke-width="4" stroke-opacity="1" d=" M27.5 41 C31.36,41 35.13,39.86 38.33,37.71 C41.54,35.57 44.04,32.53 45.52,28.96 C46.99,25.4 47.38,21.48 46.63,17.7 C45.87,13.91 44.02,10.44 41.29,7.71 C38.56,4.98 35.09,3.13 31.3,2.38 C27.52,1.62 23.6,2.01 20.04,3.48 C16.48,4.96 13.43,7.46 11.29,10.67 C9.14,13.87 8,17.64 8,21.5 C8,21.5 8,23 8,23 "/><path id="_R_G_L_5_G_D_1_P_0" stroke="#807e7a" stroke-linecap="round" stroke-linejoin="round" fill="none" stroke-width="4" stroke-opacity="1" d=" M2 16.99 C2,16.99 8,22.99 8,22.99 C8,22.99 14,16.99 14,16.99 "/></g></g><g id="_R_G_L_4_G_M"><g id="_R_G_L_4_G" transform=" translate(60, 76)"><path id="_R_G_L_4_G_D_0_P_0" stroke="#ffffff" stroke-linecap="round" stroke-linejoin="round" fill="none" stroke-width="5" stroke-opacity="1" d=" M26.5 40 C30.36,40 34.13,38.86 37.33,36.71 C40.54,34.57 43.04,31.53 44.52,27.96 C45.99,24.4 46.38,20.48 45.63,16.7 C44.87,12.91 43.02,9.44 40.29,6.71 C37.56,3.98 34.09,2.13 30.3,1.38 C26.52,0.62 22.6,1.01 19.04,2.48 C15.48,3.96 12.43,6.46 10.29,9.67 C8.14,12.87 7,16.64 7,20.5 C7,20.5 7,22 7,22 "/><path id="_R_G_L_4_G_D_1_P_0" stroke="#ffffff" stroke-linecap="round" stroke-linejoin="round" fill="none" stroke-width="5" stroke-opacity="1" d=" M1 15.99 C1,15.99 7,21.99 7,21.99 C7,21.99 13,15.99 13,15.99 "/></g></g><g id="_R_G_L_3_G_M"><g id="_R_G_L_3_G" transform=" translate(60, 75)"><path id="_R_G_L_3_G_D_0_P_0" stroke="#ff9900" stroke-linecap="round" stroke-linejoin="round" fill="none" stroke-width="4" stroke-opacity="1" d=" M27.5 41 C31.36,41 35.13,39.86 38.33,37.71 C41.54,35.57 44.04,32.53 45.52,28.96 C46.99,25.4 47.38,21.48 46.63,17.7 C45.87,13.91 44.02,10.44 41.29,7.71 C38.56,4.98 35.09,3.13 31.3,2.38 C27.52,1.62 23.6,2.01 20.04,3.48 C16.48,4.96 13.43,7.46 11.29,10.67 C9.14,13.87 8,17.64 8,21.5 C8,21.5 8,23 8,23 "/><path id="_R_G_L_3_G_D_1_P_0" stroke="#ff9900" stroke-linecap="round" stroke-linejoin="round" fill="none" stroke-width="4" stroke-opacity="1" d=" M2 16.99 C2,16.99 8,22.99 8,22.99 C8,22.99 14,16.99 14,16.99 "/></g></g><g id="_R_G_L_2_G_M"><g id="_R_G_L_2_G" transform=" translate(60, 76)"><path id="_R_G_L_2_G_D_0_P_0" stroke="#807e7a" stroke-linecap="round" stroke-linejoin="round" fill="none" stroke-width="4" stroke-opacity="1" d=" M27.5 41 C31.36,41 35.13,39.86 38.33,37.71 C41.54,35.57 44.04,32.53 45.52,28.96 C46.99,25.4 47.38,21.48 46.63,17.7 C45.87,13.91 44.02,10.44 41.29,7.71 C38.56,4.98 35.09,3.13 31.3,2.38 C27.52,1.62 23.6,2.01 20.04,3.48 C16.48,4.96 13.43,7.46 11.29,10.67 C9.14,13.87 8,17.64 8,21.5 C8,21.5 8,23 8,23 "/><path id="_R_G_L_2_G_D_1_P_0" stroke="#807e7a" stroke-linecap="round" stroke-linejoin="round" fill="none" stroke-width="4" stroke-opacity="1" d=" M2 16.99 C2,16.99 8,22.99 8,22.99 C8,22.99 14,16.99 14,16.99 "/></g></g><g id="_R_G_L_1_G_M"><g id="_R_G_L_1_G" transform=" translate(60, 76)"><path id="_R_G_L_1_G_D_0_P_0" stroke="#ffffff" stroke-linecap="round" stroke-linejoin="round" fill="none" stroke-width="5" stroke-opacity="1" d=" M26.5 40 C30.36,40 34.13,38.86 37.33,36.71 C40.54,34.57 43.04,31.53 44.52,27.96 C45.99,24.4 46.38,20.48 45.63,16.7 C44.87,12.91 43.02,9.44 40.29,6.71 C37.56,3.98 34.09,2.13 30.3,1.38 C26.52,0.62 22.6,1.01 19.04,2.48 C15.48,3.96 12.43,6.46 10.29,9.67 C8.14,12.87 7,16.64 7,20.5 C7,20.5 7,22 7,22 "/><path id="_R_G_L_1_G_D_1_P_0" stroke="#ffffff" stroke-linecap="round" stroke-linejoin="round" fill="none" stroke-width="5" stroke-opacity="1" d=" M1 15.99 C1,15.99 7,21.99 7,21.99 C7,21.99 13,15.99 13,15.99 "/></g></g><g id="_R_G_L_0_G_M"><g id="_R_G_L_0_G" transform=" translate(60, 75)"><path id="_R_G_L_0_G_D_0_P_0" stroke="#ff9900" stroke-linecap="round" stroke-linejoin="round" fill="none" stroke-width="4" stroke-opacity="1" d=" M27.5 41 C31.36,41 35.13,39.86 38.33,37.71 C41.54,35.57 44.04,32.53 45.52,28.96 C46.99,25.4 47.38,21.48 46.63,17.7 C45.87,13.91 44.02,10.44 41.29,7.71 C38.56,4.98 35.09,3.13 31.3,2.38 C27.52,1.62 23.6,2.01 20.04,3.48 C16.48,4.96 13.43,7.46 11.29,10.67 C9.14,13.87 8,17.64 8,21.5 C8,21.5 8,23 8,23 "/><path id="_R_G_L_0_G_D_1_P_0" stroke="#ff9900" stroke-linecap="round" stroke-linejoin="round" fill="none" stroke-width="4" stroke-opacity="1" d=" M2 16.99 C2,16.99 8,22.99 8,22.99 C8,22.99 14,16.99 14,16.99 "/></g></g></g><g id="time_group"/></svg>